<svg id="visual" viewBox="0 0 900 450" width="900" height="450" xmlns="http://www.w3.org/2000/svg" xmlns:xlink="http://www.w3.org/1999/xlink" version="1.1"><rect x="0" y="0" width="900" height="450" fill="#fff"></rect><defs><linearGradient id="grad1_0" x1="50%" y1="100%" x2="100%" y2="0%"><stop offset="10%" stop-color="#ffffff" stop-opacity="1"></stop><stop offset="90%" stop-color="#ffffff" stop-opacity="1"></stop></linearGradient></defs><defs><linearGradient id="grad2_0" x1="0%" y1="100%" x2="50%" y2="0%"><stop offset="10%" stop-color="#ffffff" stop-opacity="1"></stop><stop offset="90%" stop-color="#ffffff" stop-opacity="1"></stop></linearGradient></defs><g transform="translate(900, 450)"><path d="M-292.5 0C-291.2 -40.9 -289.9 -81.7 -270.2 -111.9C-250.6 -142.1 -212.5 -161.6 -182.4 -182.4C-152.3 -203.2 -130.1 -225.3 -101 -243.9C-71.9 -262.5 -36 -277.5 0 -292.5L0 0Z" fill="#0066FF"></path></g><g transform="translate(0, 0)"><path d="M292.5 0C292.9 42.3 293.4 84.7 270.2 111.9C247.1 139.2 200.5 151.4 169 169C137.5 186.6 121.3 209.5 95.7 231C70 252.4 35 272.5 0 292.5L0 0Z" fill="#0066FF"></path></g></svg>